<svg id="Layer_1" data-name="Layer 1" xmlns="http://www.w3.org/2000/svg" viewBox="0 0 512 512"><defs><style>.cls-1{fill:#1976d2;}.cls-2{fill:#fff;}</style></defs><title>Icon</title><polyline class="cls-1" points="434.34 380.58 434.34 433.75 376.5 433.75"/><path class="cls-1" d="M376.5,433.75H190A111.66,111.66,0,0,1,78.34,322.08V189.42A111.66,111.66,0,0,1,190,77.75H322.67A111.67,111.67,0,0,1,434.34,189.42V380.58"/><path class="cls-2" d="M347.46,348.46a131.28,131.28,0,0,1-98.84,37.08A129.85,129.85,0,0,1,166.75,350C145,329.24,130.5,301,127.17,271.08a132,132,0,0,1,23.32-90.88c20.22-28.64,51.81-47.38,86.21-53,4.8-.78,7.47-6.74,6.28-11.07-1.4-5.09-6.25-7.07-11.07-6.28C160,121.63,106.23,187.16,108.4,260c2.11,70.82,56.36,132.43,126.8,142.2a149.65,149.65,0,0,0,125-41c8.32-8.09-4.42-20.81-12.73-12.73Z"/><path class="cls-2" d="M378.8,211.94A132.08,132.08,0,0,1,367.6,323c-6,10,9.61,19,15.54,9.09a149.74,149.74,0,0,0,13-125C392.4,196.27,375,201,378.8,211.94Z"/><path class="cls-2" d="M276.46,127.24a132.15,132.15,0,0,1,91.67,62.12c6,9.91,21.53.87,15.54-9.09-22.24-37-59.79-63.19-102.42-70.38-4.79-.81-9.7,1.26-11.08,6.28-1.18,4.32,1.47,10.26,6.29,11.07Z"/><path class="cls-2" d="M175.45,306.45a3,3,0,0,1-.06-4.05c12.05-13.37,24.42-26.4,36.87-39.34l9.84-10.17L232,242.78l1.24-1.26.64-.65A9.9,9.9,0,0,1,246,239.64c.23.15.46.3.68.47l.27.2.35.26c1.89,1.41,3.77,2.83,5.63,4.28q5.59,4.34,11,8.87l10.83,9.11.68.57.33.29a3.41,3.41,0,0,0-.52-.33,4,4,0,0,0-2.63-.42,4.13,4.13,0,0,0-1.26.45,5.28,5.28,0,0,0-.55.37l-.25.22-.12.12,0,0,1.3-1.2L277,258l20.71-19.29q19.75-18.26,39.68-36.35a3,3,0,0,1,4.1.11h0a3,3,0,0,1,.11,4.1q-18,20-36.35,39.68L286,267l-4.83,5.18-1.2,1.3-.12.12-.28.26a5.57,5.57,0,0,1-.59.5,8.08,8.08,0,0,1-1.3.85,9.21,9.21,0,0,1-2.92,1,9.46,9.46,0,0,1-6.05-1,11,11,0,0,1-1.26-.83l-.35-.26-.72-.52L255,265.17c-3.8-2.8-7.52-5.69-11.2-8.64-1.85-1.47-3.67-3-5.48-4.47l-.34-.28-.09-.07s-.08-.07,0,0l.31.21a4.59,4.59,0,0,0,4.38.25,4.68,4.68,0,0,0,1.23-.86l-.65.57-1.32,1.18-10.56,9.42-10.62,9.36c-13.52,11.82-27.11,23.56-41,35a3,3,0,0,1-4-.25Z"/></svg>